Coordinates
version=1
nRows=29
nColumns=22
inDegrees=yes

Units are S.I. units (second, meters, Newtons, ...)
If the header above contains a line with 'inDegrees', this indicates whether rotational values are in degrees (yes) or radians (no).

endheader
time	pelvis_tilt	pelvis_list	pelvis_rotation	pelvis_tx	pelvis_ty	pelvis_tz	hip_flexion_r	hip_adduction_r	hip_rotation_r	knee_angle_r	ankle_angle_r	subtalar_angle_r	hip_flexion_l	hip_adduction_l	hip_rotation_l	knee_angle_l	ankle_angle_l	subtalar_angle_l	lumbar_extension	lumbar_bending	lumbar_rotation
      1.38000000	     -4.50874767	     -0.00152175	     -3.64254175	     -1.45031294	      0.99726983	     -0.67867957	     30.30089035	     -4.77833063	     -0.58499723	    -48.55592880	      7.54124827	     -0.19214603	     -1.79031167	      2.71092006	    -13.18479453	     -7.92805158	     14.82822097	     -5.70397531	     -3.88519005	     -3.34635314	     -4.23015480
      1.39000000	     -4.55670656	     -0.13293746	     -3.69326434	     -1.44771161	      0.99699447	     -0.67877850	     30.78213650	     -4.63312806	     -0.92822680	    -47.63449857	      7.67624727	     -0.13759707	     -1.90469171	      2.59068034	    -13.24710643	     -7.94528352	     14.95533166	     -5.67667987	     -3.93964612	     -3.15481459	     -4.33157127
      1.40000000	     -4.59265131	     -0.25986509	     -3.74124292	     -1.44499325	      0.99668739	     -0.67883141	     31.20024775	     -4.49894709	     -1.27918315	    -46.53549272	      7.76513409	     -0.04588136	     -2.03874952	      2.47244986	    -13.30978028	     -7.96461025	     15.09847905	     -5.63575983	     -4.01622632	     -2.96584826	     -4.42828434
      1.41000000	     -4.61211392	     -0.37894501	     -3.78564587	     -1.44214694	      0.99635024	     -0.67883957	     31.55157344	     -4.38152751	     -1.63771269	    -45.27755232	      7.81607557	      0.07480873	     -2.20041815	      2.36069466	    -13.36983132	     -7.98014594	     15.24537246	     -5.57969890	     -4.11762807	     -2.78329477	     -4.51906067
      1.42000000	     -4.61255628	     -0.49040706	     -3.82319694	     -1.43915833	      0.99598599	     -0.67881635	     31.83251863	     -4.28496970	     -2.01571649	    -43.87579571	      7.82590884	      0.22100903	     -2.39565282	      2.25746351	    -13.42607827	     -7.98730289	     15.40220055	     -5.50726969	     -4.24486039	     -2.60746970	     -4.60667707
      1.43000000	     -4.58116976	     -0.58757230	     -3.85445905	     -1.43601826	      0.99559933	     -0.67876105	     32.03901786	     -4.22095359	     -2.42305503	    -42.36120202	      7.79684750	      0.39733394	     -2.64630922	      2.17220442	    -13.48022466	     -7.96953011	     15.58921524	     -5.40842130	     -4.40929366	     -2.44581745	     -4.69659119
      1.44000000	     -4.54575323	     -0.67739502	     -3.87423069	     -1.43275281	      0.99515907	     -0.67868075	     32.19748537	     -4.17880452	     -2.86225393	    -40.74222102	      7.76286776	      0.58654154	     -2.90846037	      2.09275275	    -13.52770369	     -7.95183000	     15.75996731	     -5.30203380	     -4.57954264	     -2.28778822	     -4.77542293
      1.45000000	     -4.51122688	     -0.75981718	     -3.88123457	     -1.42934427	      0.99465219	     -0.67855982	     32.31755183	     -4.15918942	     -3.34702580	    -39.04071594	      7.71480064	      0.79521347	     -3.18082590	      2.01809419	    -13.56867590	     -7.92936292	     15.93727892	     -5.20148686	     -4.74376590	     -2.13595979	     -4.85711104
      1.46000000	     -4.45878494	     -0.82917948	     -3.88200496	     -1.42579395	      0.99410136	     -0.67837809	     32.38874072	     -4.16640626	     -3.88413800	    -37.28599956	      7.66578298	      1.04145808	     -3.48559863	      1.95571630	    -13.60441012	     -7.89650260	     16.13055238	     -5.08894349	     -4.92376864	     -2.00391718	     -4.93353716
      1.47000000	     -4.40119690	     -0.88872701	     -3.87048054	     -1.42209918	      0.99348865	     -0.67816865	     32.42528656	     -4.19740107	     -4.47790041	    -35.49256521	      7.61973413	      1.32204547	     -3.80613157	      1.90207309	    -13.63645349	     -7.85913434	     16.33369562	     -4.97066378	     -5.10372029	     -1.87684160	     -5.00476779
      1.48000000	     -4.33785026	     -0.94040318	     -3.84817159	     -1.41826003	      0.99281737	     -0.67791144	     32.43119709	     -4.24588479	     -5.13352737	    -33.68233330	      7.58001410	      1.63604327	     -4.14203913	      1.85337586	    -13.66322087	     -7.81992518	     16.54693775	     -4.84699179	     -5.28341644	     -1.75641684	     -5.07101259
      1.49000000	     -4.26648019	     -0.98483387	     -3.81849636	     -1.41428087	      0.99209087	     -0.67757681	     32.41009609	     -4.30482202	     -5.85077759	    -31.87557377	      7.55077255	      1.98531962	     -4.49647961	      1.80742121	    -13.68512700	     -7.77763019	     16.77489251	     -4.71652487	     -5.46402975	     -1.64880513	     -5.13044340
      1.50000000	     -4.18781471	     -1.02004642	     -3.78391706	     -1.41016182	      0.99130803	     -0.67717338	     32.36922684	     -4.37205832	     -6.62376020	    -30.09449803	      7.53575526	      2.37011273	     -4.86638421	      1.76661326	    -13.70619809	     -7.73688228	     17.01285923	     -4.57919776	     -5.64414424	     -1.55205183	     -5.17506841
      1.51000000	     -4.11384411	     -1.05098389	     -3.74349039	     -1.40590895	      0.99045267	     -0.67670054	     32.32250319	     -4.43872195	     -7.44980511	    -28.34950864	      7.52821254	      2.77523308	     -5.23456989	      1.72360651	    -13.71916934	     -7.70704857	     17.26666140	     -4.44843220	     -5.80853667	     -1.45875026	     -5.21544432
      1.52000000	     -4.05453841	     -1.08168191	     -3.68917019	     -1.40155718	      0.98951889	     -0.67613882	     32.28026471	     -4.49753906	     -8.32134387	    -26.64831653	      7.52044644	      3.17759773	     -5.57024551	      1.66566137	    -13.71601089	     -7.72542338	     17.52684698	     -4.33509132	     -5.95184635	     -1.37002146	     -5.25079025
      1.53000000	     -3.95169837	     -1.09892365	     -3.66709473	     -1.39703724	      0.98858094	     -0.67545119	     32.19708519	     -4.54665432	     -9.19440701	    -25.02393692	      7.54347841	      3.69109417	     -5.98457309	      1.62696170	    -13.74959272	     -7.70139038	     17.79496931	     -4.16808219	     -6.13312020	     -1.30210461	     -5.23660988
      1.54000000	     -3.88848720	     -1.12176362	     -3.63531618	     -1.39241896	      0.98753327	     -0.67467742	     32.14619241	     -4.57516043	    -10.06270537	    -23.46305570	      7.54780267	      4.16440405	     -6.34009016	      1.56679003	    -13.76338298	     -7.72594925	     18.08967903	     -4.02904640	     -6.26355064	     -1.22434265	     -5.23108108
      1.55000000	     -3.83681406	     -1.14446627	     -3.61313314	     -1.38769847	      0.98642346	     -0.67377580	     32.10391558	     -4.58143937	    -10.88636793	    -21.98041609	      7.53996905	      4.63540090	     -6.67306078	      1.49487196	    -13.78495058	     -7.78774841	     18.39561932	     -3.88420070	     -6.37845062	     -1.15086253	     -5.20260732
      1.56000000	     -3.79836460	     -1.16826072	     -3.60612225	     -1.38287154	      0.98525360	     -0.67275442	     32.07405952	     -4.56586903	    -11.63626217	    -20.58859019	      7.51572194	      5.09204455	     -6.98297103	      1.41151471	    -13.81868376	     -7.88476917	     18.71555170	     -3.72691355	     -6.47467132	     -1.07570858	     -5.15585256
      1.57000000	     -3.77660959	     -1.19859949	     -3.61065727	     -1.37793196	      0.98402957	     -0.67161106	     32.05664465	     -4.52687946	    -12.31034495	    -19.29300020	      7.47696303	      5.51270184	     -7.26454679	      1.31020675	    -13.86304842	     -8.02128881	     19.04874934	     -3.55758791	     -6.54756069	     -0.99411475	     -5.09249514
      1.58000000	     -3.76865153	     -1.22764185	     -3.62873717	     -1.37287319	      0.98275644	     -0.67034958	     32.05485023	     -4.47711266	    -12.90959933	    -18.11270129	      7.42992473	      5.87615434	     -7.52079528	      1.20077118	    -13.92056905	     -8.19721620	     19.38504335	     -3.37569270	     -6.59924225	     -0.91463818	     -5.01653986
      1.59000000	     -3.79325707	     -1.26991209	     -3.65188716	     -1.36767308	      0.98140789	     -0.66899302	     32.08895327	     -4.41375658	    -13.48687121	    -17.06394333	      7.36581645	      6.14088591	     -7.73146647	      1.06620752	    -13.98398128	     -8.41575052	     19.73875548	     -3.22847467	     -6.60438572	     -0.81552642	     -4.92523849
      1.60000000	     -3.76404830	     -1.29886989	     -3.66985345	     -1.36232938	      0.98013165	     -0.66756101	     32.05968682	     -4.36999125	    -14.02126685	    -16.13887266	      7.33730494	      6.41777531	     -7.99299189	      0.94078772	    -14.05061998	     -8.66260914	     20.06687225	     -2.94852776	     -6.67119272	     -0.73256125	     -4.85787210
      1.61000000	     -3.78078090	     -1.33712946	     -3.68033235	     -1.35680520	      0.97875991	     -0.66605753	     32.08640358	     -4.32805263	    -14.59335115	    -15.37835257	      7.31985659	      6.56126972	     -8.20565669	      0.79544734	    -14.10704999	     -8.93268718	     20.40556266	     -2.75282555	     -6.67086676	     -0.62931646	     -4.80072021
      1.62000000	     -3.76815250	     -1.36273644	     -3.67221072	     -1.35111281	      0.97741989	     -0.66450720	     32.08867776	     -4.31909246	    -15.20702636	    -14.78354629	      7.33114403	      6.65284071	     -8.44671993	      0.65602479	    -14.16258076	     -9.22495956	     20.72436763	     -2.50827940	     -6.70080749	     -0.53461180	     -4.77957810
      1.63000000	     -3.71803489	     -1.38070358	     -3.66508591	     -1.34521858	      0.97614426	     -0.66287780	     32.06000437	     -4.32938730	    -15.86516845	    -14.36229112	      7.31872345	      6.69966037	     -8.75206329	      0.52504270	    -14.22523927	     -9.49285128	     20.98712312	     -2.11080175	     -6.76606997	     -0.44510526	     -4.76037354
      1.64000000	     -3.68822410	     -1.39076589	     -3.62610585	     -1.33915859	      0.97483334	     -0.66122275	     32.06244147	     -4.37529709	    -16.57844737	    -14.12814919	      7.32399911	      6.69138228	     -9.03313410	      0.39000509	    -14.23982606	     -9.78403862	     21.22489947	     -1.79339588	     -6.80319747	     -0.34985527	     -4.78295862
      1.65000000	     -3.65272029	     -1.37804683	     -3.55366319	     -1.33290984	      0.97354333	     -0.65952461	     32.05869586	     -4.46972010	    -17.32152956	    -14.06493373	      7.34954978	      6.66208903	     -9.32381142	      0.26512400	    -14.25581340	    -10.08159133	     21.41374878	     -1.48834036	     -6.83671919	     -0.27387891	     -4.88352010
      1.66000000	     -3.59917570	     -1.36942853	     -3.46897880	     -1.32646303	      0.97233205	     -0.65776348	     32.03178996	     -4.57981335	    -18.10136043	    -14.16702588	      7.27514337	      6.62393833	     -9.65982320	      0.13159034	    -14.22276028	    -10.35307533	     21.54182466	     -1.05766952	     -6.88685652	     -0.18481707	     -4.98862022
